<svg width="25" height="24" viewBox="0 0 25 24" fill="none" xmlns="http://www.w3.org/2000/svg">
  <path d="M18.0926 5.0926C18.2354 4.94975 18.4087 4.94975 18.5515 5.0926L19.2099 5.75101C19.3527 5.89386 19.3527 6.06716 19.2099 6.20999L13.2099 12.2099L19.2099 18.2099C19.3527 18.3527 19.3527 18.526 19.2099 18.6688L18.5515 19.3272C18.4087 19.4701 18.2354 19.4701 18.0926 19.3272L12.0926 13.3272L6.0926 19.3272C5.94975 19.4701 5.77645 19.4701 5.63364 19.3272L4.97522 18.6688C4.83237 18.526 4.83237 18.3527 4.97522 18.2099L10.9752 12.2099L4.97522 6.20999C4.83237 6.06716 4.83237 5.89386 4.97522 5.75101L5.63364 5.0926C5.77645 4.94975 5.94975 4.94975 6.0926 5.0926L12.0926 11.0926L18.0926 5.0926Z" fill="#000000"/>
</svg>
